<svg width="40" height="40" viewBox="0 0 40 40" fill="none" xmlns="http://www.w3.org/2000/svg">
<path d="M25.6211 34.5809C25.4974 35.2009 25.2792 35.7699 24.9649 36.2882C24.6402 36.8229 24.2152 37.3022 23.6901 37.7256C23.1651 38.1483 22.5923 38.4669 21.9747 38.6799C21.3559 38.893 20.6974 39 20.0019 39C19.3061 39 18.6479 38.893 18.0287 38.6799C17.4108 38.4672 16.8387 38.1483 16.3137 37.7256C15.7883 37.3022 15.3633 36.8226 15.0386 36.2882C14.7145 35.7538 14.4924 35.1657 14.3717 34.5237C14.3129 34.2098 14.5324 33.9092 14.8619 33.8529C14.8723 33.8514 14.9688 33.8424 14.9688 33.8418H25.0347C25.3714 33.8418 25.6441 34.1015 25.6441 34.4216C25.6438 34.477 25.6363 34.5302 25.6211 34.5809ZM23.2086 3.12408C23.7025 3.24685 24.182 3.39591 24.647 3.57063C25.3318 3.82792 25.9896 4.13841 26.6198 4.50053C26.6445 4.51507 26.6686 4.53053 26.6923 4.5463C27.2965 4.90008 27.8586 5.2888 28.3771 5.71278C28.9194 6.15624 29.4249 6.64639 29.8934 7.18294L29.8973 7.18696H29.898C30.3558 7.71515 30.7656 8.2789 31.1276 8.87605C31.491 9.4763 31.8017 10.1013 32.0585 10.7488L32.0598 10.7485C32.3254 11.4147 32.5241 12.0975 32.6553 12.7964C32.7871 13.4987 32.8524 14.2186 32.8524 14.9561C32.8524 16.4139 32.8524 17.2003 32.8531 17.2959C32.8563 18.0433 32.8605 18.7738 32.8664 19.4869V19.4943C32.869 20.1385 32.9134 20.7867 32.9975 21.4361C33.0807 22.0784 33.2024 22.6987 33.3596 23.2959L33.3609 23.2956C33.5187 23.8844 33.732 24.4506 33.9996 24.9943C34.2743 25.554 34.6084 26.1014 35.0016 26.6367L35.0035 26.6354C35.3915 27.1602 35.8773 27.6785 36.4608 28.19C37.0631 28.7185 37.7628 29.2362 38.5586 29.7433C39.0151 30.0346 39.1376 30.6235 38.8314 31.0586C38.6398 31.331 38.3252 31.4785 38.0044 31.4788V31.4819H29.0031H20.0019H11H1.99877C1.44711 31.4819 1 31.0561 1 30.531C1 30.1856 1.1932 29.8834 1.48218 29.7167C2.291 29.1954 2.98552 28.6795 3.56543 28.168C4.14241 27.659 4.62556 27.1383 5.01422 26.6048C5.02591 26.589 5.0376 26.5739 5.04994 26.559C5.42561 26.0352 5.74706 25.5014 6.01331 24.9593C6.28411 24.4079 6.50133 23.8392 6.66401 23.2532C6.66725 23.2408 6.67082 23.2288 6.67472 23.2167C6.82895 22.6477 6.94649 22.0481 7.02799 21.4194C7.10981 20.7863 7.15072 20.1326 7.15072 19.4597V14.9561C7.15072 14.2325 7.21891 13.5116 7.35496 12.7954C7.491 12.0801 7.69134 11.3933 7.95532 10.7374C8.218 10.0815 8.53296 9.45279 8.89857 8.85224C9.26191 8.2557 9.67686 7.68855 10.1415 7.15262L10.147 7.14644L10.1457 7.14521C10.6094 6.61732 11.1182 6.12717 11.6721 5.67659C12.2186 5.23221 12.8086 4.82833 13.4417 4.46621C14.083 4.1016 14.7454 3.79545 15.4315 3.54744C15.9084 3.37488 16.3987 3.23015 16.902 3.11295C17.0738 2.54053 17.3686 2.07728 17.7858 1.72258C18.3618 1.23273 19.1213 0.99245 20.0636 1.00018C20.9971 1.00791 21.7501 1.25407 22.3209 1.73959C22.7394 2.09553 23.0355 2.55692 23.2086 3.12408ZM23.9216 5.3389C23.3693 5.1317 22.806 4.96842 22.2322 4.85122C21.7903 4.79679 21.4263 4.46373 21.3698 4.02337C21.3159 3.60867 21.1909 3.31798 20.9951 3.1516C20.7987 2.9843 20.4828 2.89895 20.048 2.89524C19.6161 2.89153 19.3041 2.97131 19.1122 3.13459C18.9174 3.30035 18.794 3.59383 18.7421 4.01595H18.7411C18.693 4.41889 18.3752 4.76247 17.9345 4.84071C17.3128 4.95296 16.713 5.11377 16.1335 5.32344C15.5548 5.53249 14.9986 5.78947 14.4635 6.09346C13.9307 6.39807 13.432 6.74009 12.967 7.11799C12.5027 7.49558 12.0718 7.91152 11.6747 8.36363L11.6734 8.36271C11.2857 8.81081 10.9351 9.29137 10.6234 9.80348C10.3165 10.3072 10.0483 10.8444 9.82038 11.4137C9.59245 11.9796 9.4236 12.5524 9.31386 13.13C9.20346 13.7096 9.14859 14.3188 9.14859 14.9564V19.4603C9.14859 20.2062 9.10215 20.9366 9.00994 21.6507C8.92097 22.3385 8.78492 23.02 8.60212 23.6933C8.59887 23.7078 8.5953 23.7226 8.59141 23.7372C8.40081 24.4234 8.14202 25.0985 7.8157 25.7624C7.50075 26.4035 7.12572 27.0269 6.69193 27.6321C6.67959 27.6519 6.6666 27.6714 6.65264 27.6906C6.19547 28.3171 5.61621 28.9396 4.91487 29.5581L4.88954 29.5801H11H20.0019H29.0031H35.1032C34.4178 28.9783 33.8411 28.361 33.3732 27.728L33.3745 27.7267L33.3732 27.7243C32.9134 27.0984 32.5209 26.4558 32.1975 25.7974C31.8669 25.1257 31.6101 24.4478 31.4263 23.7641L31.427 23.7638L31.4263 23.7604C31.2461 23.0794 31.1085 22.3808 31.0159 21.6665C30.9279 20.9833 30.8808 20.2625 30.877 19.5042V19.5021C30.8711 18.7976 30.8669 18.0622 30.8636 17.2962C30.8578 15.8786 30.8555 15.1049 30.8555 14.9564C30.8555 14.3305 30.8003 13.7219 30.6893 13.1313C30.5789 12.5428 30.4139 11.9738 30.1954 11.4252L30.1967 11.4249L30.1954 11.4215C29.971 10.8558 29.7071 10.3215 29.4035 9.82018C29.1002 9.32013 28.7528 8.84327 28.3609 8.39084L28.3615 8.39054C27.9729 7.94585 27.5465 7.53393 27.0825 7.15448C26.6328 6.7871 26.1578 6.45682 25.6562 6.16273C25.6341 6.15191 25.6117 6.14046 25.5902 6.12778C25.049 5.8173 24.4931 5.55352 23.9216 5.3389Z" fill="white" stroke="white"/>
</svg>
